<svg width="172" height="208" viewBox="0 0 172 208" fill="none" xmlns="http://www.w3.org/2000/svg">
<path d="M157.008 0.0078125C157.008 6.92147 161.685 12.742 168.048 14.4787C170.178 15.0602 172 16.7965 172 19.0048V189.002C172 191.21 170.178 192.947 168.048 193.528C162.945 194.921 158.926 198.942 157.534 204.046C156.954 206.177 155.217 208 153.008 208H4C1.79086 208 0 206.209 0 204V4C0 1.79086 1.79086 0 4 0H157C157.004 0 157.008 0.00349842 157.008 0.0078125Z" fill="#891A20"/>
<mask id="mask0_5746_1074" style="mask-type:alpha" maskUnits="userSpaceOnUse" x="0" y="0" width="172" height="208">
<path d="M157.008 0.0078125C157.008 6.92147 161.685 12.742 168.048 14.4787C170.178 15.0602 172 16.7965 172 19.0048V189.002C172 191.21 170.178 192.947 168.048 193.528C162.945 194.921 158.926 198.942 157.534 204.046C156.954 206.177 155.217 208 153.008 208H4C1.79086 208 0 206.209 0 204V4C0 1.79086 1.79086 0 4 0H157C157.004 0 157.008 0.00349842 157.008 0.0078125Z" fill="#2237B6"/>
</mask>
<g mask="url(#mask0_5746_1074)">
<path d="M140.35 94.5543C140.05 94.7757 139.799 95.0686 139.598 95.4332C139.402 95.7978 139.295 96.1624 139.275 96.527L138.992 96.527L138.992 93.1676C139.181 93.1155 139.52 92.9234 140.008 92.5914L144.891 89.0074L144.891 87.3766L140.77 87.3766C140.47 87.3766 140.226 87.4091 140.037 87.4742C139.848 87.5458 139.702 87.6598 139.598 87.816C139.493 87.9788 139.419 88.1611 139.373 88.3629C139.327 88.5647 139.295 88.8284 139.275 89.1539L138.992 89.1539L138.992 83.7535L139.275 83.7535C139.314 84.4176 139.432 84.8831 139.627 85.15C139.822 85.4169 140.203 85.5504 140.77 85.5504L150.594 85.5504C151.147 85.5504 151.521 85.4137 151.717 85.1402C151.912 84.8733 152.029 84.4111 152.068 83.7535L152.352 83.7535L152.352 89.3883C152.352 90.9964 152.036 92.2691 151.404 93.2066C150.779 94.1441 149.848 94.6129 148.611 94.6129C147.622 94.6129 146.821 94.2971 146.209 93.6656C145.604 93.0341 145.203 92.1552 145.008 91.0289L140.35 94.5543ZM151.795 87.3766L145.457 87.3766L145.457 89.1734C145.457 90.2867 145.743 91.1428 146.316 91.7418C146.896 92.3473 147.661 92.65 148.611 92.65C149.581 92.65 150.353 92.3473 150.926 91.7418C151.505 91.1428 151.795 90.2867 151.795 89.1734L151.795 87.3766ZM144.354 96.0488L144.988 96.0488L144.988 110.053L144.354 110.053L144.354 96.0488ZM140.613 122.543C140.236 122.81 139.923 123.142 139.676 123.539C139.428 123.943 139.295 124.357 139.275 124.78L138.992 124.78L138.992 121.225C139.285 121.186 139.712 120.965 140.271 120.561L146.17 116.401L144.432 114.545L140.77 114.545C140.203 114.545 139.826 114.676 139.637 114.936C139.448 115.203 139.327 115.665 139.275 116.323L138.992 116.323L138.992 110.922L139.275 110.922C139.327 111.586 139.448 112.052 139.637 112.319C139.826 112.586 140.203 112.719 140.77 112.719L150.594 112.719C151.147 112.719 151.521 112.582 151.717 112.309C151.912 112.042 152.029 111.58 152.068 110.922L152.352 110.922L152.352 116.323L152.068 116.323C152.029 115.678 151.912 115.219 151.717 114.946C151.521 114.679 151.147 114.545 150.594 114.545L145.193 114.545L150.896 120.62C151.294 121.043 151.587 121.179 151.775 121.03C151.964 120.88 152.062 120.424 152.068 119.662L152.352 119.662L152.352 123.862L152.068 123.862C152.029 123.035 151.622 122.215 150.848 121.401L147.41 117.719L140.613 122.543ZM122.35 76.975C122.05 77.1964 121.799 77.4893 121.598 77.8539C121.402 78.2185 121.295 78.5831 121.275 78.9477L120.992 78.9477L120.992 75.5883C121.181 75.5362 121.52 75.3441 122.008 75.0121L126.891 71.4281L126.891 69.7973L122.77 69.7973C122.47 69.7973 122.226 69.8298 122.037 69.8949C121.848 69.9665 121.702 70.0805 121.598 70.2367C121.493 70.3995 121.419 70.5818 121.373 70.7836C121.327 70.9854 121.295 71.2491 121.275 71.5746L120.992 71.5746L120.992 66.1742L121.275 66.1742C121.314 66.8383 121.432 67.3038 121.627 67.5707C121.822 67.8376 122.203 67.9711 122.77 67.9711L132.594 67.9711C133.147 67.9711 133.521 67.8344 133.717 67.5609C133.912 67.294 134.029 66.8318 134.068 66.1742L134.352 66.1742L134.352 71.809C134.352 73.4171 134.036 74.6898 133.404 75.6273C132.779 76.5648 131.848 77.0336 130.611 77.0336C129.622 77.0336 128.821 76.7178 128.209 76.0863C127.604 75.4548 127.203 74.5759 127.008 73.4496L122.35 76.975ZM133.795 69.7973L127.457 69.7973L127.457 71.5941C127.457 72.7074 127.743 73.5635 128.316 74.1625C128.896 74.768 129.661 75.0707 130.611 75.0707C131.581 75.0707 132.353 74.768 132.926 74.1625C133.505 73.5635 133.795 72.7074 133.795 71.5941L133.795 69.7973ZM122.135 84.2605C122.135 85.504 122.701 86.4773 123.834 87.1805L123.736 87.4051C122.857 87.1642 122.132 86.6857 121.559 85.9695C120.992 85.2534 120.709 84.3973 120.709 83.4012C120.709 82.4702 120.934 81.6531 121.383 80.95C121.839 80.2534 122.447 79.7228 123.209 79.3582C123.977 79.0001 124.84 78.8211 125.797 78.8211C127.437 78.8211 128.766 79.2573 129.781 80.1297C130.803 81.0086 131.314 82.1577 131.314 83.577C131.314 84.7684 130.911 85.6993 130.104 86.3699C129.296 87.047 128.238 87.3921 126.93 87.4051L126.93 80.5398C126.852 80.5268 126.725 80.5203 126.549 80.5203C125.201 80.4747 124.127 80.7937 123.326 81.4773C122.532 82.1674 122.135 83.0952 122.135 84.2605ZM130.748 83.284C130.748 82.5874 130.449 82.0014 129.85 81.5262C129.251 81.0509 128.466 80.7417 127.496 80.5984L127.496 85.5789C128.056 85.5659 128.577 85.4682 129.059 85.2859C129.547 85.1102 129.951 84.8465 130.27 84.4949C130.589 84.1434 130.748 83.7397 130.748 83.284ZM134.85 93.5187C134.85 92.9654 134.609 92.5454 134.127 92.259C133.652 91.979 133.001 91.8391 132.174 91.8391L131.012 91.8391L131.012 94.6125L130.455 94.6125L130.455 91.8391L122.496 91.8391C122.079 91.8391 121.79 91.9855 121.627 92.2785C121.464 92.5715 121.347 93.076 121.275 93.7922L120.992 93.7922L120.992 88.7531L121.275 88.7531C121.314 88.981 121.357 89.1698 121.402 89.3195C121.448 89.4693 121.513 89.6158 121.598 89.759C121.689 89.9022 121.806 90.0064 121.949 90.0715C122.099 90.1431 122.281 90.1789 122.496 90.1789L130.455 90.1789L130.455 88.4895L131.012 88.4895L131.012 90.1789L131.637 90.1789C132.874 90.1789 133.811 90.5077 134.449 91.1652C135.094 91.8293 135.416 92.6919 135.416 93.7531C135.416 94.287 135.335 94.7655 135.172 95.1887C135.016 95.6184 134.775 95.9341 134.449 96.1359L133.414 94.8176C133.831 94.7395 134.173 94.5799 134.439 94.3391C134.713 94.1047 134.85 93.8312 134.85 93.5187ZM122.135 100.16C122.135 101.403 122.701 102.377 123.834 103.08L123.736 103.304C122.857 103.063 122.132 102.585 121.559 101.869C120.992 101.153 120.709 100.296 120.709 99.3004C120.709 98.3694 120.934 97.5523 121.383 96.8492C121.839 96.1526 122.447 95.622 123.209 95.2574C123.977 94.8993 124.84 94.7203 125.797 94.7203C127.437 94.7203 128.766 95.1565 129.781 96.0289C130.803 96.9078 131.314 98.0569 131.314 99.4762C131.314 100.668 130.911 101.599 130.104 102.269C129.296 102.946 128.238 103.291 126.93 103.304L126.93 96.4391C126.852 96.426 126.725 96.4195 126.549 96.4195C125.201 96.374 124.127 96.693 123.326 97.3766C122.532 98.0667 122.135 98.9944 122.135 100.16ZM130.748 99.1832C130.748 98.4866 130.449 97.9006 129.85 97.4254C129.251 96.9501 128.466 96.6409 127.496 96.4977L127.496 101.478C128.056 101.465 128.577 101.367 129.059 101.185C129.547 101.009 129.951 100.746 130.27 100.394C130.589 100.043 130.748 99.6389 130.748 99.1832ZM131.314 110.473C131.314 110.753 131.253 111.02 131.129 111.273L129.527 111.176C129.703 110.87 129.791 110.515 129.791 110.111C129.791 109.63 129.632 109.164 129.312 108.715C128.993 108.266 128.535 107.891 127.936 107.592L122.496 107.592C122.079 107.592 121.79 107.735 121.627 108.021C121.464 108.314 121.347 108.826 121.275 109.555L120.992 109.555L120.992 104.496L121.275 104.496C121.314 104.724 121.357 104.913 121.402 105.062C121.448 105.212 121.513 105.359 121.598 105.502C121.689 105.652 121.806 105.759 121.949 105.824C122.099 105.896 122.281 105.932 122.496 105.932L129.176 105.932C129.514 105.932 129.765 105.847 129.928 105.678C130.097 105.515 130.191 105.255 130.211 104.896L130.211 104.418L130.494 104.418L131.314 107.318L131.314 107.592L128.551 107.592C129.443 107.943 130.126 108.367 130.602 108.861C131.077 109.363 131.314 109.9 131.314 110.473ZM131.314 118.002C131.314 118.282 131.253 118.549 131.129 118.803L129.527 118.705C129.703 118.399 129.791 118.045 129.791 117.641C129.791 117.159 129.632 116.694 129.312 116.245C128.993 115.795 128.535 115.421 127.936 115.121L122.496 115.121C122.079 115.121 121.79 115.265 121.627 115.551C121.464 115.844 121.347 116.355 121.275 117.084L120.992 117.084L120.992 112.026L121.275 112.026C121.314 112.254 121.357 112.442 121.402 112.592C121.448 112.742 121.513 112.888 121.598 113.032C121.689 113.181 121.806 113.289 121.949 113.354C122.099 113.426 122.281 113.461 122.496 113.461L129.176 113.461C129.514 113.461 129.765 113.377 129.928 113.207C130.097 113.045 130.191 112.784 130.211 112.426L130.211 111.948L130.494 111.948L131.314 114.848L131.314 115.121L128.551 115.121C129.443 115.473 130.126 115.896 130.602 116.391C131.077 116.892 131.314 117.429 131.314 118.002ZM121.812 128.12L121.793 128.608L121.51 128.608L120.689 125.708L120.689 125.425L123.268 125.425C122.467 125.138 121.835 124.692 121.373 124.087C120.917 123.488 120.689 122.807 120.689 122.046C120.689 121.264 120.93 120.626 121.412 120.132C121.9 119.643 122.529 119.399 123.297 119.399C124.26 119.399 125.003 119.738 125.523 120.415C126.044 121.098 126.461 122.248 126.773 123.862L127.076 125.425L127.75 125.425C128.681 125.425 129.413 125.216 129.947 124.8C130.481 124.383 130.748 123.81 130.748 123.081C130.748 122.697 130.657 122.352 130.475 122.046C130.292 121.746 130.058 121.525 129.771 121.382C129.485 121.238 129.16 121.157 128.795 121.137C128.437 121.118 128.082 121.199 127.73 121.382L127.193 119.819C127.617 119.624 128.027 119.523 128.424 119.516C128.827 119.516 129.202 119.624 129.547 119.839C129.898 120.054 130.204 120.33 130.465 120.669C130.732 121.007 130.94 121.417 131.09 121.899C131.24 122.387 131.314 122.902 131.314 123.442C131.314 124.562 130.989 125.447 130.338 126.098C129.693 126.756 128.818 127.085 127.711 127.085L122.848 127.085C122.496 127.085 122.239 127.166 122.076 127.329C121.92 127.498 121.832 127.762 121.812 128.12ZM123.834 125.425L126.49 125.425L126.187 123.921C126.005 122.964 125.722 122.257 125.338 121.802C124.954 121.352 124.433 121.128 123.775 121.128C123.215 121.128 122.75 121.294 122.379 121.626C122.014 121.964 121.832 122.391 121.832 122.905C121.832 123.413 122.014 123.895 122.379 124.35C122.743 124.806 123.229 125.164 123.834 125.425ZM122.477 132.114C122.079 132.114 121.799 132.225 121.637 132.446C121.48 132.668 121.36 132.997 121.275 133.433L120.992 133.433L120.992 129.116L121.275 129.116C121.36 129.566 121.48 129.901 121.637 130.122C121.799 130.344 122.079 130.454 122.477 130.454L132.975 130.454C133.32 130.454 133.574 130.373 133.736 130.21C133.899 130.047 133.99 129.784 134.01 129.419L134.01 128.931L134.293 128.931L135.113 131.831L135.113 132.114L122.477 132.114ZM120.709 138.17C120.709 137.265 120.924 136.441 121.354 135.699C121.79 134.957 122.343 134.446 123.014 134.166L123.717 135.621C122.988 135.77 122.398 136.089 121.949 136.578C121.5 137.073 121.275 137.636 121.275 138.267C121.275 138.899 121.441 139.413 121.773 139.81C122.105 140.207 122.545 140.406 123.092 140.406C123.495 140.399 123.844 140.285 124.137 140.064C124.43 139.849 124.661 139.569 124.83 139.224C125.006 138.879 125.165 138.498 125.309 138.082C125.452 137.665 125.602 137.245 125.758 136.822C125.921 136.405 126.103 136.024 126.305 135.679C126.513 135.334 126.796 135.051 127.154 134.83C127.512 134.608 127.932 134.494 128.414 134.488C129.273 134.475 129.97 134.791 130.504 135.435C131.044 136.08 131.314 136.929 131.314 137.984C131.314 138.824 131.135 139.576 130.777 140.24C130.419 140.91 129.937 141.36 129.332 141.588L128.687 140.23C129.299 140.041 129.794 139.729 130.172 139.293C130.556 138.856 130.748 138.375 130.748 137.847C130.748 137.248 130.595 136.767 130.289 136.402C129.983 136.044 129.583 135.865 129.088 135.865C128.808 135.865 128.557 135.93 128.336 136.06C128.115 136.197 127.929 136.376 127.779 136.597C127.63 136.825 127.493 137.086 127.369 137.379C127.252 137.671 127.138 137.981 127.027 138.306C126.917 138.632 126.803 138.957 126.686 139.283C126.568 139.608 126.425 139.918 126.256 140.211C126.093 140.51 125.908 140.774 125.699 141.002C125.491 141.236 125.23 141.421 124.918 141.558C124.605 141.701 124.251 141.776 123.854 141.783C122.929 141.802 122.174 141.474 121.588 140.796C121.002 140.119 120.709 139.244 120.709 138.17Z" fill="#E0DEDD"/>
<path d="M7.47125 9.31981V10.2398H6.55125V9.25581L7.03925 8.20781H7.50325L7.08725 9.31981H7.47125ZM10.1604 8.10381C11.2324 8.10381 12.0004 8.63981 12.0004 9.62381C12.0004 10.9678 10.6004 12.1518 8.97638 13.3278H12.1604V14.0078H7.98438V13.3518C10.0324 11.8398 11.2324 10.7518 11.2324 9.71981C11.2324 9.11181 10.8404 8.71181 10.1444 8.71181C9.52038 8.71181 8.92037 9.05581 8.89638 10.0158H8.14437C8.12038 8.86381 8.92037 8.10381 10.1604 8.10381ZM13.4471 12.1518C13.4471 12.9598 13.9431 13.5038 14.7111 13.5038C15.4471 13.5038 15.9831 12.9438 15.9831 12.1518C15.9831 11.3598 15.4631 10.7758 14.7191 10.7758C13.9591 10.7758 13.4471 11.3598 13.4471 12.1518ZM14.7831 8.71181C13.8791 8.71181 13.3991 9.60781 13.3591 10.9518C13.6231 10.4958 14.1191 10.1438 14.8871 10.1438C15.9671 10.1438 16.7591 10.9518 16.7591 12.1118C16.7591 13.1918 15.9591 14.1118 14.7191 14.1118C13.2711 14.1118 12.6071 13.1038 12.6071 11.3118C12.6071 9.67981 13.1831 8.10381 14.8711 8.10381C16.0071 8.10381 16.5351 8.81581 16.6631 9.55181H15.8711C15.7751 9.03181 15.3831 8.71181 14.7831 8.71181Z" fill="#E0DEDD"/>
<path d="M124.397 14.0078H123.533L121.933 8.95181V14.0078H121.117V8.20781H122.485L123.965 13.0398L125.445 8.20781H126.813V14.0078H125.997V8.95181L124.397 14.0078ZM127.259 14.0078L129.411 8.20781H130.355L132.539 14.0078H131.659L131.203 12.7518H128.539L128.091 14.0078H127.259ZM129.859 9.03181L128.787 12.0558H130.947L129.859 9.03181ZM136.524 14.0078L135.268 11.5598C135.116 11.5678 134.98 11.5678 134.828 11.5678H133.804V14.0078H132.988V8.20781H134.828C136.236 8.20781 137.244 8.48781 137.244 9.87981C137.244 10.7998 136.804 11.2398 136.092 11.4318L137.436 14.0078H136.524ZM134.892 8.89581H133.804V10.8798H134.892C135.748 10.8798 136.404 10.7918 136.404 9.89581C136.404 8.99981 135.748 8.89581 134.892 8.89581ZM142.172 12.1598H142.964C142.708 13.4398 141.708 14.1118 140.452 14.1118C138.788 14.1118 137.82 12.8558 137.82 11.0958C137.82 9.30381 138.884 8.10381 140.516 8.10381C141.716 8.10381 142.676 8.81581 142.932 10.0558H142.14C141.972 9.32781 141.396 8.79181 140.476 8.79181C139.452 8.79181 138.652 9.59181 138.652 11.0958C138.652 12.5678 139.42 13.4238 140.5 13.4238C141.436 13.4238 141.988 12.9038 142.172 12.1598ZM147.529 8.20781H148.345V14.0078H147.529V11.3758H144.481V14.0078H143.665V8.20781H144.481V10.6718H147.529V8.20781Z" fill="#E0DEDD"/>
<path d="M112.581 19.7116H113.717L113.925 18.2156H114.517L114.309 19.7116H115.557L115.765 18.2156H116.357L116.149 19.7116H117.221L117.141 20.2796H116.069L115.877 21.6716H116.957L116.877 22.2396H115.797L115.557 24.0156H114.965L115.205 22.2396H113.957L113.717 24.0156H113.125L113.365 22.2396H112.237L112.317 21.6716H113.445L113.637 20.2796H112.501L112.581 19.7116ZM114.229 20.2796L114.037 21.6716H115.285L115.477 20.2796H114.229ZM119.405 23.5116C120.173 23.5116 120.717 23.1196 120.717 22.3916C120.717 21.5596 119.973 21.2876 119.045 21.2876H118.925V20.6236H119.021C120.045 20.6236 120.565 20.3436 120.565 19.6636C120.565 19.0476 120.053 18.7196 119.437 18.7196C118.661 18.7196 118.237 19.1836 118.173 19.8476H117.421C117.509 18.8236 118.237 18.1116 119.453 18.1116C120.453 18.1116 121.333 18.5196 121.333 19.5836C121.333 20.1836 120.997 20.6796 120.389 20.9276C121.253 21.2076 121.493 21.7676 121.493 22.3836C121.493 23.5516 120.509 24.1196 119.397 24.1196C118.021 24.1196 117.421 23.2716 117.333 22.3036H118.085C118.173 23.0156 118.581 23.5116 119.405 23.5116ZM123.772 24.0156H123.044V19.4796H121.7V18.9836C122.532 18.9596 122.956 18.8396 123.276 18.2156H123.772V24.0156ZM126.813 18.1116C127.997 18.1116 128.749 18.7356 128.749 19.5916C128.749 20.0716 128.525 20.6076 127.949 20.9276C128.693 21.2236 128.925 21.8556 128.925 22.3836C128.925 23.4956 127.997 24.1196 126.813 24.1196C125.621 24.1196 124.693 23.4956 124.693 22.3836C124.693 21.8636 124.917 21.2236 125.677 20.9276C125.101 20.6076 124.877 20.0716 124.877 19.5916C124.877 18.7356 125.629 18.1116 126.813 18.1116ZM126.813 21.2316C125.981 21.2316 125.469 21.7036 125.469 22.3836C125.469 23.0636 125.981 23.5116 126.813 23.5116C127.637 23.5116 128.157 23.0636 128.157 22.3836C128.157 21.7036 127.637 21.2316 126.813 21.2316ZM128.013 19.6796C128.013 19.1036 127.541 18.7196 126.813 18.7196C126.077 18.7196 125.605 19.1036 125.605 19.6796C125.605 20.2636 126.077 20.6956 126.813 20.6956C127.541 20.6956 128.013 20.2636 128.013 19.6796ZM131.887 22.1676H129.343V21.4796H131.887V22.1676ZM132.689 24.0156V18.2156H134.777C135.857 18.2156 136.817 18.4956 136.817 19.6476C136.817 20.1996 136.585 20.6956 136.177 20.9276C136.729 21.1596 137.057 21.5916 137.057 22.3036C137.057 23.5356 136.129 24.0156 134.977 24.0156H132.689ZM133.505 21.3436V23.3276H134.985C135.817 23.3276 136.217 22.9756 136.217 22.3116C136.217 21.6316 135.825 21.3436 134.937 21.3436H133.505ZM133.505 18.9036V20.6956H134.905C135.577 20.6956 135.993 20.4396 135.993 19.7596C135.993 19.1596 135.553 18.9036 134.905 18.9036H133.505ZM139.304 24.0156H138.576V19.4796H137.232V18.9836C138.064 18.9596 138.488 18.8396 138.808 18.2156H139.304V24.0156ZM142.258 18.1116C143.33 18.1116 144.098 18.6476 144.098 19.6316C144.098 20.9756 142.698 22.1596 141.074 23.3356H144.258V24.0156H140.082V23.3596C142.13 21.8476 143.33 20.7596 143.33 19.7276C143.33 19.1196 142.938 18.7196 142.242 18.7196C141.618 18.7196 141.018 19.0636 140.994 20.0236H140.242C140.218 18.8716 141.018 18.1116 142.258 18.1116ZM146.576 23.5116C147.344 23.5116 147.888 23.1196 147.888 22.3916C147.888 21.5596 147.144 21.2876 146.216 21.2876H146.096V20.6236H146.192C147.216 20.6236 147.736 20.3436 147.736 19.6636C147.736 19.0476 147.224 18.7196 146.608 18.7196C145.832 18.7196 145.408 19.1836 145.344 19.8476H144.592C144.68 18.8236 145.408 18.1116 146.624 18.1116C147.624 18.1116 148.504 18.5196 148.504 19.5836C148.504 20.1836 148.168 20.6796 147.56 20.9276C148.424 21.2076 148.664 21.7676 148.664 22.3836C148.664 23.5516 147.68 24.1196 146.568 24.1196C145.192 24.1196 144.592 23.2716 144.504 22.3036H145.256C145.344 23.0156 145.752 23.5116 146.576 23.5116Z" fill="#E0DEDD"/>
<path fill-rule="evenodd" clip-rule="evenodd" d="M23.273 192.026C23.2719 192.026 23.2708 192.025 23.2697 192.025L23.2687 192.024L23.2677 192.024C23.1617 191.981 23.0558 191.939 22.9495 191.898C22.8305 191.841 22.7119 191.787 22.5948 191.733C22.0426 191.481 21.5222 191.243 21.1406 190.827C20.9816 190.653 21.1348 190.414 21.3641 190.466C22.2598 190.671 22.984 191.2 23.7105 191.731C24.0551 191.982 24.4002 192.234 24.7644 192.452C24.799 192.473 24.7731 192.535 24.7343 192.525C24.494 192.458 24.2537 192.391 24.0183 192.31C23.7668 192.224 23.5199 192.125 23.273 192.026ZM61.0895 157.165L61.0212 157.6C61.0149 157.654 61.0096 157.703 61.0047 157.747C60.9919 157.864 60.9822 157.953 60.9664 158.041C60.9627 158.062 60.9443 158.081 60.9196 158.106C60.8942 158.132 60.8518 158.134 60.8262 158.109C60.5162 157.8 60.7033 157.594 60.9513 157.321C60.9962 157.271 61.0432 157.22 61.0895 157.165Z" fill="#E0DEDD"/>
<path fill-rule="evenodd" clip-rule="evenodd" d="M61.0212 157.6L61.0895 157.165C61.0432 157.22 60.9962 157.271 60.9513 157.321C60.7033 157.594 60.5162 157.8 60.8262 158.109C60.8518 158.134 60.8942 158.132 60.9196 158.106C60.9443 158.081 60.9627 158.062 60.9664 158.041C60.9822 157.953 60.9919 157.864 61.0047 157.747C61.0096 157.703 61.0149 157.654 61.0212 157.6ZM23.273 192.026C23.2719 192.026 23.2708 192.025 23.2697 192.025L23.2687 192.024L23.2677 192.024C23.1617 191.981 23.0558 191.939 22.9495 191.898C22.8305 191.841 22.7119 191.787 22.5948 191.733C22.0426 191.481 21.5222 191.243 21.1406 190.827C20.9816 190.653 21.1348 190.414 21.3641 190.466C22.2598 190.671 22.984 191.2 23.7105 191.731C24.0551 191.982 24.4002 192.234 24.7644 192.452C24.799 192.473 24.7731 192.535 24.7343 192.525C24.494 192.458 24.2537 192.391 24.0183 192.31C23.7668 192.224 23.5199 192.125 23.273 192.026Z" fill="#E0DEDD"/>
<path fill-rule="evenodd" clip-rule="evenodd" d="M61.0212 157.6L61.0895 157.165C61.0432 157.22 60.9962 157.271 60.9513 157.321C60.7033 157.594 60.5162 157.8 60.8262 158.109C60.8518 158.134 60.8942 158.132 60.9196 158.106C60.9443 158.081 60.9627 158.062 60.9664 158.041C60.9822 157.953 60.9919 157.864 61.0047 157.747C61.0096 157.703 61.0149 157.654 61.0212 157.6ZM23.2687 192.024L23.2677 192.024C23.1617 191.981 23.0558 191.939 22.9495 191.898C22.8305 191.841 22.7119 191.787 22.5948 191.733C22.0426 191.481 21.5222 191.243 21.1406 190.827C20.9816 190.653 21.1348 190.414 21.3641 190.466C22.2598 190.671 22.984 191.2 23.7105 191.731C24.0551 191.982 24.4002 192.234 24.7644 192.452C24.799 192.473 24.7731 192.535 24.7343 192.525C24.494 192.458 24.2537 192.391 24.0183 192.31C23.7668 192.224 23.5199 192.125 23.273 192.026L23.2697 192.025L23.2687 192.024ZM62.0141 127.315C62.0146 127.314 62.0152 127.314 62.0157 127.313L62.0141 127.315Z" fill="#E0DEDD"/>
<path fill-rule="evenodd" clip-rule="evenodd" d="M65.95 156.496C66.0276 156.135 65.9403 155.833 65.8526 155.483C65.7768 155.179 66.3157 154.958 66.5676 155.144C67.1982 155.608 67.9114 156.175 67.8437 157.864C67.8095 158.446 67.9225 159.57 68.2882 159.111C68.3079 159.087 68.3223 159.057 68.3303 159.026C68.4728 158.486 68.0361 158.579 68.2037 157.989C68.2822 157.713 68.672 157.781 68.7503 158.057C68.9957 158.923 69.3464 159.086 69.4576 158.964C69.4724 158.948 69.4789 158.926 69.4837 158.905C69.5778 158.488 69.5075 157.948 69.3676 157.797C69.2539 157.674 68.8811 157.403 69.5606 156.517C69.6888 156.349 69.9403 156.388 69.9888 156.593C70.0763 156.963 70.0878 157.29 70.828 158.107C70.8707 158.154 70.9287 158.187 70.9915 158.198C71.7683 158.332 72.2854 158.226 72.5782 159.193C72.6347 159.38 72.6611 159.826 72.8186 160.291C72.9173 160.583 73.151 160.454 73.0755 160.156C73.0287 159.971 72.9991 159.812 72.9843 159.665C72.9538 159.363 73.3956 159.318 73.5575 159.575C74.0305 160.326 74.6113 160.796 74.6822 161.232C74.768 161.758 74.7874 162.073 74.7874 162.494C74.7873 162.765 74.8445 162.905 75.0451 163.196C75.2041 163.426 75.6103 163.32 75.7744 163.094C75.9391 162.867 76.1288 162.673 76.1798 161.721C76.1956 161.427 76.5266 161.334 76.6189 161.614C77.1369 163.184 76.6423 165.136 76.869 165.594C76.8769 165.61 76.8872 165.624 76.9003 165.636C77.1044 165.821 77.1501 165.16 77.3123 164.809C77.4869 164.432 77.5167 163.489 77.7763 162.952C77.8485 162.803 78.035 162.809 78.0763 162.969C78.2969 163.826 77.7721 166.009 79.2059 167.124C80.1305 167.843 79.9603 168.464 79.9128 169.227C79.9004 169.428 80.0874 169.528 80.1823 169.351C80.4059 168.933 80.5087 168.185 80.8988 167.835C81.0598 167.691 81.2384 167.882 81.1787 168.089C79.9121 172.503 80.4678 176.047 78.5917 179.084C78.5092 179.217 78.535 179.402 78.6829 179.455C79.0784 179.597 79.5153 179.382 80.2605 179.156C80.486 179.088 80.6787 179.302 80.5583 179.505C80.0248 180.403 79.0565 180.768 78.6788 180.907C77.3885 181.379 76.9336 180.98 75.6035 180.512L75.5969 180.51C75.3063 180.408 75.0241 180.309 74.7604 180.533C73.0772 181.967 70.9694 182.595 68.9887 183.461C66.0852 184.73 63.0969 185.795 60.1494 186.959C59.7469 187.118 59.4416 187.006 59.1745 186.72C58.426 185.917 57.6488 185.136 56.9478 184.295C56.3092 183.528 56.0207 182.66 56.4774 181.667C56.6237 181.348 56.7066 180.985 56.7349 180.635C56.8387 179.352 57.6938 178.635 58.7257 178.066C59.1689 177.822 59.2803 177.431 59.1369 177.074C58.9759 176.673 58.5709 176.909 58.3021 177.032C56.9595 177.648 55.8251 178.587 54.5929 179.375C52.8426 180.494 51.1506 181.76 49.0527 182.172C47.4985 182.478 46.3758 183.331 45.3026 184.392C44.5744 185.112 43.5428 185.41 42.5842 185.748C41.1575 186.251 39.6962 186.618 38.1496 186.563C37.1625 186.527 36.9486 186.785 37.0119 187.759C37.0851 188.885 37.4899 189.931 37.9598 190.934C38.3327 191.731 38.2729 192.465 37.9956 193.238C37.6538 194.191 37.0407 194.97 36.3086 195.65C35.8072 196.115 35.1606 196.23 34.5166 195.965C33.6939 195.627 33.0533 195.718 32.4305 196.415C31.9436 196.96 31.2555 197.312 30.6163 197.692C29.7572 198.203 28.8177 198.157 28.0689 197.639C26.9959 196.898 25.8292 196.435 24.6046 196.068C22.7903 195.526 20.9713 194.993 19.0763 194.78C18.9083 194.761 18.7215 194.709 18.5722 194.758C17.7659 195.021 17.2184 194.646 16.7326 194.087C16.2547 193.537 15.6867 193.105 15.0048 192.822C14.1509 192.467 13.446 191.877 12.6812 191.383C11.7548 190.785 10.8439 190.163 9.93858 189.535C9.22344 189.038 9.19086 188.686 9.80079 188.061C10.9888 186.845 12.5139 186.441 14.1614 186.436C14.9878 186.434 15.822 186.41 16.6469 186.579C17.696 186.795 18.1516 187.305 18.0005 188.338C17.8919 189.08 18.0047 189.798 18.0562 190.526C18.0625 190.614 18.0834 190.696 18.1371 190.748C18.1608 190.772 18.1939 190.783 18.2272 190.784C18.6652 190.804 18.8009 189.976 19.3181 190.132C19.4833 190.182 19.6851 190.166 19.7163 189.996C19.7582 189.768 19.6986 189.517 19.6047 189.233C19.2777 188.244 18.6864 187.503 17.8895 186.813C16.8329 185.899 16.5566 184.556 16.3422 183.245C16.2039 182.399 16.1545 181.542 16.1551 180.681C16.1555 180.073 16.4635 179.732 17.0138 179.719C19.056 179.672 21.015 179.972 22.6503 181.32C23.6141 182.115 23.4274 183.203 23.3699 184.24C23.3411 184.76 23.229 185.274 22.9776 185.751C22.9207 185.859 22.8679 185.977 22.8584 186.112C22.847 186.272 23.0266 186.353 23.1534 186.255C23.3366 186.113 23.4806 185.912 23.6871 185.742C23.8476 185.61 24.0577 185.743 24.0652 185.951C24.0982 186.86 24.2115 187.729 25.3099 188.037C25.3671 188.053 25.4332 188.054 25.4763 188.013C25.5412 187.951 25.5535 187.855 25.5365 187.759C25.3915 186.935 25.3645 186.065 25.0608 185.302C24.5192 183.94 24.372 182.545 24.3922 181.121C24.401 180.493 24.2471 179.982 23.8141 179.526C23.4002 179.09 23.0055 178.637 22.6045 178.184C22.4872 178.052 22.2822 178.053 22.1468 178.166C21.2071 178.957 20.0555 178.704 19.4665 177.556C19.1554 176.95 18.9854 176.299 18.9973 175.62C19.0171 174.486 18.7534 173.444 18.4158 172.343C17.9169 170.714 16.8693 169.373 16.364 167.781L16.3628 167.777C16.3244 167.656 16.2828 167.525 16.1161 167.416C16.0235 167.356 15.9034 167.38 15.8191 167.452C15.1085 168.055 14.3528 168.686 13.6121 169.333C12.7954 170.047 12.1179 170.888 11.4706 171.745C10.8194 172.606 9.88902 172.996 8.91981 173.331C8.44139 173.497 8.25767 173.301 8.37577 172.765C8.58044 171.837 8.99488 171.001 9.82953 170.48C11.8355 169.226 13.2749 167.361 15.0731 165.886C15.501 165.535 15.5061 165.131 15.3708 164.65C14.7351 162.39 14.2676 160.095 13.9464 157.772C13.8663 157.192 13.8317 156.605 13.728 156.03C13.6033 155.338 13.3455 155.181 12.6599 155.34C11.9472 155.505 11.2265 155.539 10.4996 155.522C9.97047 155.509 9.47816 155.346 9.06672 155.042C7.15984 153.631 5.28399 152.179 3.36774 150.781C2.02923 149.804 1.08309 148.56 0.379293 147.088C-0.144578 145.993 -0.621931 144.865 -1.39455 143.898C-2.13156 142.975 -3.27009 142.689 -4.36106 143.155C-5.4949 143.639 -6.43102 144.411 -7.34512 145.19C-8.87521 146.495 -10.3169 147.893 -11.4679 149.548C-11.9532 150.246 -12.6443 150.571 -13.4811 150.583C-14.1409 150.592 -14.6496 150.853 -15.1456 151.264C-16.2047 152.142 -17.5179 152.468 -18.8359 152.738C-20.2144 153.02 -20.2749 152.928 -19.9531 151.568C-19.5004 149.656 -19.152 147.72 -18.6282 145.823C-18.38 144.924 -18.2969 144.877 -17.5144 145.396C-17.2312 145.584 -17.1685 145.626 -16.9336 145.577C-16.7881 145.546 -16.6824 145.395 -16.7609 145.269C-16.9208 145.012 -17.2755 145.023 -17.5459 144.91C-17.6161 144.881 -17.6684 144.814 -17.6615 144.738C-17.6282 144.37 -16.9466 144.267 -17.0015 143.891C-17.0266 143.719 -17.0262 143.519 -16.855 143.491C-16.7769 143.478 -16.6989 143.476 -16.6221 143.475C-16.4292 143.473 -16.3597 143.281 -16.437 143.104C-16.5992 142.733 -16.4165 142.593 -15.8154 142.519C-15.4741 142.477 -15.1518 142.545 -14.8103 142.633C-14.603 142.686 -14.4683 142.438 -14.2834 142.331C-14.192 142.277 -14.044 142.294 -13.85 142.35C-13.1892 142.541 -12.5628 142.792 -11.9839 143.157C-11.7812 143.284 -11.6039 143.377 -11.3421 143.233C-9.29192 142.106 -7.5104 140.721 -6.54373 138.532C-6.27217 137.917 -6.03666 137.296 -5.94354 136.622C-5.76095 135.3 -4.36864 134.169 -3.01167 134.218C-2.51534 134.236 -2.12167 134.48 -1.78045 134.816C-1.34078 135.249 -1.05986 135.81 -0.649146 136.254C0.617036 137.623 1.9756 138.897 3.86923 139.401C4.23789 139.499 4.68488 139.678 4.97764 139.247C5.49593 138.485 5.48638 138.018 5.07573 137.473C4.17724 136.282 3.12385 135.301 1.79554 134.541C0.498499 133.798 -0.4137 132.586 -1.38433 131.471C-2.0631 130.691 -2.74484 129.914 -3.43318 129.142C-3.73444 128.804 -4.10996 128.589 -4.55971 128.463C-5.24703 128.271 -5.82559 127.895 -6.34457 127.401C-7.53883 126.264 -8.52241 124.917 -9.82252 123.895C-11.3907 122.662 -13.1526 121.77 -15.0067 120.966C-16.8037 120.187 -18.403 120.967 -20.0886 121.027C-20.4903 121.041 -20.8881 121.142 -21.2902 121.173C-21.8522 121.216 -22.1254 120.939 -22.1086 120.387C-22.059 118.757 -22.0269 117.125 -21.9508 115.496C-21.9165 114.762 -21.9464 114.034 -21.9763 113.303L-21.9789 113.24C-22.0079 112.53 -21.8497 112.411 -21.1175 112.449C-20.6158 112.475 -20.1747 112.694 -19.7043 112.863C-19.5215 112.929 -19.3373 112.788 -19.3903 112.601C-19.509 112.183 -19.8144 111.854 -20.0277 111.457C-20.1143 111.296 -20.006 111.109 -19.8234 111.106C-19.0535 111.091 -18.4475 111.511 -17.7856 111.747C-16.9427 112.046 -16.8951 112.846 -16.5547 113.47C-16.4954 113.579 -16.3677 113.624 -16.2452 113.605C-15.4305 113.481 -14.8737 113.879 -14.5058 114.584C-14.183 115.202 -13.6448 115.609 -13.1573 116.076C-10.8954 118.241 -8.24752 119.741 -5.20273 120.569C-5.05904 120.608 -4.91277 120.682 -4.77067 120.676C-3.5329 120.621 -2.82539 121.482 -2.02526 122.185C-1.29596 122.825 -0.67664 123.576 0.155113 124.117C1.55243 125.025 3.11446 125.367 4.74106 125.527C4.99516 125.552 5.24279 125.528 5.47705 125.381C7.52297 124.094 9.87042 123.723 12.1899 123.269C14.6703 122.785 17.1398 122.849 19.6066 123.385C20.2923 123.533 20.5617 123.216 20.3756 122.532C20.2454 122.054 19.9255 121.676 19.5878 121.327C17.7 119.378 15.5991 117.733 12.9456 116.88C10.8785 116.215 9.03212 115.122 7.25707 113.925L7.24828 113.919C6.59607 113.479 6.2877 113.271 5.8891 112.15C5.84056 112.013 5.91441 111.856 6.04987 111.907C6.32949 112.013 6.6514 112.439 6.91545 112.708C7.05953 112.854 7.17192 112.739 7.0715 112.559C6.666 111.834 5.83968 110.69 5.49409 110.304C4.72458 109.445 4.51135 108.588 4.19125 107.522C4.11533 107.269 4.11668 106.236 4.19137 105.99C4.59205 104.672 3.16719 103.504 3.14289 102.202C3.13393 101.722 2.42378 100.379 2.34415 99.5086C2.32246 99.2716 2.564 99.2499 2.66803 99.464C3.08995 100.332 3.70443 101.698 3.78858 102.202C3.97125 103.296 4.75242 103.552 5.04583 104.622C5.15648 104.899 5.59716 104.669 5.49323 104.389C5.08052 103.28 4.96428 102.578 5.04616 100.387C5.09996 98.9475 3.99664 97.0669 4.50303 95.5973C4.50834 95.5819 4.5127 95.5657 4.51555 95.5497C4.91291 93.3037 3.62902 91.8531 3.86065 90.9076C3.87174 90.8623 3.89583 90.8191 3.9373 90.7979C4.34847 90.5878 5.44461 91.6185 5.96628 92.8494C6.07257 93.1002 6.30526 93.0997 6.2627 92.8306C6.11734 91.9119 5.45473 90.6001 5.35328 90.1032C5.1444 89.0803 6.1354 88.2762 5.87956 87.2625C5.81408 87.0031 4.89788 85.0492 4.81109 84.399C4.79556 84.2828 4.90143 84.2281 5.00954 84.2736C5.3945 84.4357 6.07423 84.8696 6.61617 85.5791C7.25921 86.4208 7.46952 87.8938 7.4576 88.9459C7.44929 89.6797 8.18965 90.6378 8.73107 91.4223C8.90159 91.6694 9.2335 91.5852 9.15601 91.2951C8.92454 90.4287 8.44474 89.364 8.50976 88.4199C8.59631 87.1634 7.84625 85.8302 7.88531 85.0083C7.8947 84.8108 8.12216 84.7704 8.2575 84.9146C10.2722 87.0617 11.1533 89.5212 11.4555 90.6296C11.7154 91.5827 12.0465 94.3199 12.6253 95.7263C12.7312 95.9834 12.9982 95.8873 12.9862 95.6094C12.9556 94.8981 12.9582 94.3294 12.9376 93.8059C12.9231 93.4369 14.2567 92.6979 14.2911 93.0656C14.3 93.1605 14.3019 93.2602 14.296 93.3653C14.1379 95.221 13.8941 96.1356 13.98 97.9946C14.0401 98.8067 14.0589 100.021 14.5409 100.669C14.6588 100.828 14.8792 100.752 14.8819 100.555C14.8934 99.6982 14.2703 98.5111 14.6679 96.4631C14.7291 96.1477 15.1043 96.1887 15.1268 96.5092C15.1982 97.5235 15.3162 98.6946 15.6633 99.6781C16.2944 101.467 17.5508 101.661 17.7672 103.255C17.9639 104.704 17.983 105.43 18.9136 106.529C19.095 106.743 19.7272 107.011 20.0816 106.938C20.6631 106.819 20.7924 106.84 21.3318 107.101C22.8124 107.818 23.9713 108.855 24.6472 110.367C24.7713 110.644 24.8785 111.214 25.0939 111.592C25.1907 111.762 25.3882 111.694 25.3509 111.502C25.2774 111.124 25.0397 110.684 25.1237 110.378C25.1393 110.322 25.1834 110.277 25.2395 110.26C25.4647 110.193 25.6019 110.389 25.7649 110.496C27.4923 111.63 27.8766 113.368 28.0528 115.241C28.3646 118.554 27.4104 121.557 25.9262 124.472C25.0309 126.229 24.9382 125.801 26.4171 127.226C28.0005 128.751 29.602 130.258 31.195 131.773C32.7894 133.29 33.425 135.306 34.1637 137.267C34.2375 137.463 34.2951 137.665 34.3688 137.861C34.371 137.867 34.3736 137.873 34.3766 137.879C34.4307 137.987 34.5841 138.054 34.6913 137.998C34.7019 137.993 34.711 137.986 34.7181 137.978C35.4564 137.127 36.5663 136.892 37.493 136.355C37.8799 136.13 38.2369 136.161 38.6359 136.374C40.1093 137.161 41.3444 138.18 42.1775 139.637C42.4744 140.156 42.736 140.176 43.1816 139.757C46.6642 136.483 50.1413 133.204 53.6265 129.933C53.9048 129.672 54.0343 129.359 54.133 129.011C54.3314 128.313 54.647 127.687 55.2527 127.227C55.6832 126.899 55.7748 126.368 55.9568 125.909C56.3683 124.871 56.9887 123.994 57.8238 123.245C58.4885 122.649 58.787 122.537 59.5847 122.991C60.2059 123.345 60.6044 123.225 61.0861 122.771C63.7014 120.305 66.3371 117.859 68.975 115.416C69.2918 115.122 69.3509 114.831 69.2783 114.411C69.0282 112.963 69.1542 111.576 70.1659 110.385C70.6194 109.851 71.1834 109.503 71.8745 109.347C72.4796 109.212 73.069 109.032 73.6048 108.713C74.1566 108.385 74.4122 107.904 74.2901 107.28C73.6517 104.022 74.6528 101.164 76.5245 98.5303C78.5362 95.7002 79.6362 92.5859 79.5533 89.1239C79.5199 87.7271 79.3136 86.3346 79.1999 84.939C79.196 84.892 79.1897 84.8437 79.185 84.7935C79.1626 84.5503 79.4374 84.564 79.5162 84.7952C79.7327 85.4304 79.939 86.0331 80.1393 86.6378C81.0419 89.3629 81.9738 92.0794 82.8299 94.8187C83.3827 96.5877 83.5686 98.4199 83.5018 100.273C83.4958 100.439 83.5148 100.608 83.542 100.772C83.545 100.79 83.5491 100.808 83.5545 100.826C83.6142 101.029 83.8852 101.079 84.0406 100.936C89.3967 96.0092 94.6205 91.0507 100.072 86.1881C100.265 86.016 100.494 86.1519 100.318 86.3408C100.29 86.3699 100.264 86.3979 100.238 86.4263C97.2633 89.7717 94.1913 93.029 91.0121 96.1887C88.8231 98.3643 86.6471 100.553 84.4377 102.708C83.9831 103.152 83.9227 103.569 84.1491 104.112C84.5689 105.121 85.2721 105.935 85.982 106.744C86.5167 107.354 86.9755 107.994 87.1527 108.803C87.2748 109.36 87.1558 109.826 86.7737 110.255C85.6216 111.55 85.6839 113.048 87.0052 114.184C88.828 115.75 90.0088 117.756 91.1495 119.797C91.4342 120.307 91.3505 120.863 91.2628 121.396C91.1748 121.931 91.011 122.454 90.8778 122.982C90.5837 124.147 90.0568 125.087 88.7967 125.543C87.2664 126.097 86.3118 127.146 85.7327 128.724C84.9624 130.823 83.9957 132.871 82.8324 134.8C81.671 136.726 80.1258 138.23 77.7857 138.763C76.8142 138.984 76.6018 139.333 76.5817 140.328C76.5762 140.6 76.5636 140.873 76.5835 141.144C76.6312 141.79 76.669 142.397 75.7989 142.589C75.4894 142.657 75.5166 142.953 75.6333 143.217C76.0511 144.162 76.2872 145.162 76.539 146.156C76.6352 146.536 76.6523 146.899 76.3384 147.21C75.2247 148.312 75.0145 149.64 75.343 151.099C75.3797 151.263 75.3972 151.432 75.4503 151.59C75.6132 152.074 75.3824 152.219 74.9261 152.266C73.147 152.448 71.3714 152.664 69.6135 152.994C69.1754 153.076 68.7534 153.238 68.3175 153.335C67.6876 153.475 67.4745 153.267 67.6009 152.654L67.608 152.619C67.7709 151.829 67.932 151.048 67.6019 150.249C67.4124 149.79 67.0928 149.604 66.6171 149.609C66.1136 149.614 65.6255 149.531 65.3051 150.124C64.5221 151.574 64.074 153.156 63.3368 154.715C62.918 155.364 62.7571 156.135 61.8594 156.227C61.7102 156.242 61.6304 156.485 61.651 156.649C61.6799 156.878 61.8718 157.039 62.0864 157.042C62.5648 157.049 62.9182 157.307 63.3097 157.512C63.5474 157.636 63.7987 157.768 64.082 157.786C64.1908 157.793 64.2861 157.72 64.3247 157.618C64.4096 157.393 64.3755 157.372 64.2666 157.128C64.2584 157.109 64.2504 157.091 64.2426 157.073C64.1113 156.764 64.6698 156.656 64.9731 156.798C64.983 156.803 64.993 156.808 65.0031 156.812C65.7606 157.149 65.8721 156.785 65.95 156.496ZM70.0229 140.683C69.4614 141.026 68.9205 141.076 68.3482 140.716C68.2597 140.66 68.1523 140.633 68.0084 140.597C67.8607 140.56 67.7832 140.402 67.8272 140.256C68.358 138.494 67.531 137.056 66.7007 135.612C66.5545 135.357 66.4081 135.103 66.2691 134.846C65.9513 134.304 65.6772 133.825 65.4261 133.385C65.378 133.301 65.291 133.238 65.1956 133.255C65.0704 133.277 65.0056 133.348 64.945 133.419C64.6107 133.806 64.3039 133.704 63.9657 133.406C63.7885 133.25 63.6244 133.08 63.4604 132.909C63.0719 132.505 62.683 132.1 62.1175 131.89C61.9041 131.81 61.9238 131.593 61.9422 131.388C61.9481 131.323 61.9538 131.26 61.952 131.202L61.9514 131.182C61.9332 130.6 61.9298 130.489 61.5307 130.314C61.3566 130.238 61.2916 130.028 61.3474 129.846C61.5204 129.284 61.1526 128.837 60.7507 128.348C60.6675 128.247 60.7227 128.094 60.847 128.052C61.3078 127.898 61.6445 127.62 61.9801 127.343L62.0141 127.315L62.0157 127.313C62.0301 127.301 62.0445 127.29 62.0589 127.278C62.0974 127.246 62.1359 127.215 62.1747 127.184C62.5552 126.879 62.6408 126.61 62.4087 126.167C61.8226 125.049 61.8336 125.033 62.7655 124.131C64.7529 122.208 66.7451 120.289 68.7373 118.371L69.2713 117.856L69.7483 117.397C69.8486 117.3 69.9548 117.209 70.07 117.111C70.1719 117.023 70.3237 117.021 70.4166 117.118C70.5795 117.288 70.7094 117.474 70.8372 117.657C70.9321 117.793 71.0259 117.928 71.1312 118.053C71.7168 118.747 72.3663 119.383 73.0357 119.998C73.3743 120.31 73.5159 120.649 73.1674 121.029C72.524 121.732 72.5852 122.419 73.098 123.177C73.3857 123.603 73.6442 124.047 73.9027 124.491C74.1201 124.865 74.3375 125.239 74.5724 125.602C74.8814 126.079 74.9217 126.532 74.6534 127.018L74.5473 127.21C74.2373 127.771 73.9272 128.333 73.6001 128.885C73.3374 129.328 73.3501 129.725 73.6141 130.178C74.6213 131.906 75.7467 133.558 76.8899 135.199C77.6854 136.342 77.5016 136.91 76.128 137.172C74.444 137.493 73.2202 138.418 72.2995 139.772C71.9604 140.27 71.6438 140.662 70.9466 140.497C70.6314 140.422 70.2958 140.517 70.0229 140.683ZM55.5773 137.831C54.7438 138.038 54.1285 138.495 53.5215 139.023C53.4017 139.127 53.27 139.218 53.1384 139.31C53.078 139.351 53.0176 139.393 52.9584 139.436C52.5675 139.71 52.3235 140.001 52.0823 140.295C52.0628 140.318 52.0438 140.344 52.0245 140.37C51.939 140.485 51.8488 140.606 51.6954 140.592C51.1021 140.535 50.8011 140.841 50.5737 141.296C50.4911 141.461 50.287 141.532 50.1314 141.431C49.9554 141.318 49.7815 141.202 49.6076 141.086C48.6291 140.431 47.6483 139.774 46.272 139.676L53.9693 132.428C54.2715 132.577 54.3432 132.79 54.4093 132.987C54.4228 133.027 54.4361 133.067 54.4511 133.105C54.6722 133.668 54.9738 134.156 55.5408 134.445C55.8683 134.612 56.0429 134.904 56.1162 135.238C56.2312 135.764 56.4151 136.237 56.8826 136.571C57.0401 136.683 57.097 136.906 56.9604 137.044C56.5549 137.45 56.0694 137.708 55.5773 137.831ZM53.1072 153.971C53.2925 154.02 53.3844 154.229 53.3007 154.401C53.0595 154.898 52.8645 155.376 52.7051 155.872C52.6616 156.007 52.5309 156.099 52.3924 156.068C52.0306 155.986 51.736 155.801 51.4446 155.618C51.3744 155.574 51.3045 155.53 51.2338 155.487C51.1727 155.45 51.1285 155.422 51.0933 155.4C51.0522 155.374 51.0233 155.356 50.9941 155.339C50.2654 154.903 50.1246 154.264 50.5884 153.561C50.6869 153.412 50.8081 153.364 50.9617 153.404C51.561 153.559 52.159 153.718 52.7864 153.886L52.8 153.889C52.9016 153.916 53.004 153.944 53.1072 153.971ZM61.0895 157.165L61.0212 157.6C61.0149 157.654 61.0096 157.703 61.0047 157.747C60.9919 157.864 60.9822 157.953 60.9664 158.041C60.9627 158.062 60.9443 158.081 60.9196 158.106C60.8942 158.132 60.8518 158.134 60.8262 158.109C60.5162 157.8 60.7033 157.594 60.9513 157.321C60.9962 157.271 61.0432 157.22 61.0895 157.165ZM22.5948 191.733C22.7119 191.787 22.8305 191.841 22.9495 191.898C23.0558 191.939 23.1617 191.981 23.2677 192.024L23.2687 192.024L23.2697 192.025L23.273 192.026C23.5199 192.125 23.7668 192.224 24.0183 192.31C24.2537 192.391 24.494 192.458 24.7343 192.525C24.7731 192.535 24.799 192.473 24.7644 192.452C24.4002 192.234 24.0551 191.982 23.7105 191.731C22.984 191.2 22.2598 190.671 21.3641 190.466C21.1348 190.414 20.9816 190.653 21.1406 190.827C21.5222 191.243 22.0426 191.481 22.5948 191.733Z" fill="#E0DEDD"/>
<path fill-rule="evenodd" clip-rule="evenodd" d="M61.0212 157.6L61.0895 157.165C61.0432 157.22 60.9962 157.271 60.9513 157.321C60.7033 157.594 60.5162 157.8 60.8262 158.109C60.8518 158.134 60.8942 158.132 60.9196 158.106C60.9443 158.081 60.9627 158.062 60.9664 158.041C60.9822 157.953 60.9919 157.864 61.0047 157.747C61.0096 157.703 61.0149 157.654 61.0212 157.6ZM23.273 192.026L23.2697 192.025L23.2687 192.024L23.2677 192.024C23.1617 191.981 23.0558 191.939 22.9495 191.898C22.8305 191.841 22.7119 191.787 22.5948 191.733C22.0426 191.481 21.5222 191.243 21.1406 190.827C20.9816 190.653 21.1348 190.414 21.3641 190.466C22.2598 190.671 22.984 191.2 23.7105 191.731C24.0551 191.982 24.4002 192.234 24.7644 192.452C24.799 192.473 24.7731 192.535 24.7343 192.525C24.494 192.458 24.2537 192.391 24.0183 192.31C23.7668 192.224 23.5199 192.125 23.273 192.026Z" fill="#E0DEDD"/>
<line x1="6.02344" y1="31.5156" x2="166.023" y2="31.5156" stroke="#E0DEDD"/>
</g>
</svg>
