<svg width="285" height="208" viewBox="0 0 285 208" fill="none" xmlns="http://www.w3.org/2000/svg">
<path d="M257 0C259.209 0 260.965 1.8043 261.329 3.98325C263.01 14.0468 270.953 21.99 281.017 23.671C283.196 24.0349 285 25.7909 285 28V183.992C285 184.001 284.993 184.008 284.984 184.008C273.089 184.008 263.215 192.662 261.314 204.018C260.95 206.196 259.194 208 256.986 208H15C14.9914 208 14.9844 207.993 14.9844 207.984C14.9844 201.073 10.3097 195.253 3.94966 193.514C1.82027 192.932 0 191.196 0 188.988V18.9871C0 16.7796 1.82026 15.0437 3.94968 14.4616C9.0485 13.0678 13.0641 9.05133 14.4562 3.95191C15.0378 1.82152 16.774 0 18.9823 0H257Z" fill="#891A20"/>
<path d="M142.984 153.969L142.984 181.375L147.066 181.375L147.066 153.969L142.984 153.969Z" fill="#E0DEDD"/>
<path d="M148.828 153.977L148.828 181.383L149.994 181.383L149.994 153.977L148.828 153.977Z" fill="#E0DEDD"/>
<path d="M151.156 153.985L151.156 181.391L152.322 181.391L152.322 153.985L151.156 153.985Z" fill="#E0DEDD"/>
<path d="M152.32 153.985L152.32 181.391L155.236 181.391L155.236 153.985L152.32 153.985Z" fill="#E0DEDD"/>
<path d="M155.82 153.993L155.82 181.398L156.403 181.398L156.403 153.993L155.82 153.993Z" fill="#E0DEDD"/>
<path d="M206.547 153.985L206.547 181.391L207.13 181.391L207.13 153.985L206.547 153.985Z" fill="#E0DEDD"/>
<path d="M157.555 153.985L157.555 181.391L158.721 181.391L158.721 153.985L157.555 153.985Z" fill="#E0DEDD"/>
<path d="M159.891 153.985L159.891 181.391L160.474 181.391L160.474 153.985L159.891 153.985Z" fill="#E0DEDD"/>
<path d="M161.07 153.977L161.07 181.383L161.653 181.383L161.653 153.977L161.07 153.977Z" fill="#E0DEDD"/>
<path d="M162.25 154L162.25 181.406L163.416 181.406L163.416 154L162.25 154Z" fill="#E0DEDD"/>
<path d="M163.992 153.993L163.992 181.398L166.325 181.398L166.325 153.993L163.992 153.993Z" fill="#E0DEDD"/>
<path d="M166.32 153.985L166.32 181.391L166.903 181.391L166.903 153.985L166.32 153.985Z" fill="#E0DEDD"/>
<path d="M168.656 153.985L168.656 181.391L169.822 181.391L169.822 153.985L168.656 153.985Z" fill="#E0DEDD"/>
<path d="M170.406 153.985L170.406 181.391L171.572 181.391L171.572 153.985L170.406 153.985Z" fill="#E0DEDD"/>
<path d="M172.734 153.993L172.734 181.398L175.067 181.398L175.067 153.993L172.734 153.993Z" fill="#E0DEDD"/>
<path d="M175.641 153.977L175.641 181.383L176.224 181.383L176.224 153.977L175.641 153.977Z" fill="#E0DEDD"/>
<path d="M177.375 153.985L177.375 181.391L178.541 181.391L178.541 153.985L177.375 153.985Z" fill="#E0DEDD"/>
<path d="M180.891 153.985L180.891 181.391L181.474 181.391L181.474 153.985L180.891 153.985Z" fill="#E0DEDD"/>
<path d="M182.055 153.993L182.055 181.398L183.221 181.398L183.221 153.993L182.055 153.993Z" fill="#E0DEDD"/>
<path d="M184.375 153.985L184.375 181.391L185.541 181.391L185.541 153.985L184.375 153.985Z" fill="#E0DEDD"/>
<path d="M188.477 153.977L188.477 181.383L190.226 181.383L190.226 153.977L188.477 153.977Z" fill="#E0DEDD"/>
<path d="M190.797 153.985L190.797 181.391L191.963 181.391L191.963 153.985L190.797 153.985Z" fill="#E0DEDD"/>
<path d="M193.141 153.985L193.141 181.391L194.307 181.391L194.307 153.985L193.141 153.985Z" fill="#E0DEDD"/>
<path d="M197.234 153.985L197.234 181.391L198.984 181.391L198.984 153.985L197.234 153.985Z" fill="#E0DEDD"/>
<path d="M199.547 153.993L199.547 181.398L200.713 181.398L200.713 153.993L199.547 153.993Z" fill="#E0DEDD"/>
<path d="M201.883 153.977L201.883 181.383L203.049 181.383L203.049 153.977L201.883 153.977Z" fill="#E0DEDD"/>
<path d="M203.047 153.985L203.047 181.391L204.213 181.391L204.213 153.985L203.047 153.985Z" fill="#E0DEDD"/>
<path d="M208.875 153.985L208.875 181.391L209.458 181.391L209.458 153.985L208.875 153.985Z" fill="#E0DEDD"/>
<path d="M210.641 153.985L210.641 181.391L211.807 181.391L211.807 153.985L210.641 153.985Z" fill="#E0DEDD"/>
<path d="M212.969 153.977L212.969 181.383L213.552 181.383L213.552 153.977L212.969 153.977Z" fill="#E0DEDD"/>
<path d="M215.297 153.969L215.297 181.375L215.88 181.375L215.88 153.969L215.297 153.969Z" fill="#E0DEDD"/>
<path d="M217.039 153.969L217.039 181.375L218.788 181.375L218.788 153.969L217.039 153.969Z" fill="#E0DEDD"/>
<path d="M219.383 153.993L219.383 181.398L221.132 181.398L221.132 153.993L219.383 153.993Z" fill="#E0DEDD"/>
<path d="M224.039 153.969L224.039 181.375L225.205 181.375L225.205 153.969L224.039 153.969Z" fill="#E0DEDD"/>
<path d="M226.375 154L226.375 181.406L227.541 181.406L227.541 154L226.375 154Z" fill="#E0DEDD"/>
<path d="M229.281 153.985L229.281 181.391L229.864 181.391L229.864 153.985L229.281 153.985Z" fill="#E0DEDD"/>
<path d="M222.883 153.985L222.883 181.391L223.466 181.391L223.466 153.985L222.883 153.985Z" fill="#E0DEDD"/>
<path d="M234.539 153.985L234.539 181.391L235.122 181.391L235.122 153.985L234.539 153.985Z" fill="#E0DEDD"/>
<path d="M229.875 153.977L229.875 181.383L232.207 181.383L232.207 153.977L229.875 153.977Z" fill="#E0DEDD"/>
<path d="M232.781 153.969L232.781 181.375L233.364 181.375L233.364 153.969L232.781 153.969Z" fill="#E0DEDD"/>
<path d="M237.469 153.993L237.469 181.398L238.635 181.398L238.635 153.993L237.469 153.993Z" fill="#E0DEDD"/>
<path d="M239.797 154L239.797 181.406L240.38 181.406L240.38 154L239.797 154Z" fill="#E0DEDD"/>
<path d="M241.539 153.985L241.539 181.391L242.705 181.391L242.705 153.985L241.539 153.985Z" fill="#E0DEDD"/>
<path d="M244.453 153.977L244.453 181.383L247.369 181.383L247.369 153.977L244.453 153.977Z" fill="#E0DEDD"/>
<path d="M248.547 153.977L248.547 181.383L249.713 181.383L249.713 153.977L248.547 153.977Z" fill="#E0DEDD"/>
<path d="M250.875 153.998L250.875 188.984L251.458 188.984L251.458 153.998L250.875 153.998Z" fill="#E0DEDD"/>
<path d="M252.609 154.014L252.609 189L253.776 189L253.776 154.014L252.609 154.014Z" fill="#E0DEDD"/>
<path d="M142.984 189L142.984 188.571L143.47 188.04C144.64 186.783 145.166 186.117 145.174 185.34C145.174 184.815 144.948 184.332 144.265 184.332C143.907 184.347 143.565 184.5 143.296 184.766L143.098 184.275C143.462 183.936 143.92 183.751 144.392 183.752C145.376 183.752 145.791 184.515 145.791 185.252C145.791 186.206 145.181 186.966 144.217 188.023L143.85 188.403L143.85 188.42L145.9 188.42L145.9 188.991L142.984 189Z" fill="#E0DEDD"/>
<path d="M150.189 188.13C150.502 188.332 150.858 188.443 151.223 188.451C152.034 188.451 152.285 187.887 152.277 187.464C152.277 186.751 151.68 186.447 151.07 186.447L150.719 186.447L150.719 185.928L151.07 185.928C151.53 185.928 152.104 185.669 152.104 185.066C152.104 184.66 151.869 184.3 151.285 184.3C150.95 184.31 150.625 184.428 150.352 184.638L150.186 184.136C150.55 183.878 150.975 183.741 151.409 183.744C152.326 183.744 152.745 184.339 152.745 184.959C152.745 185.483 152.455 185.928 151.882 186.157C152.168 186.205 152.43 186.363 152.62 186.603C152.809 186.843 152.914 187.148 152.916 187.464C152.916 188.279 152.334 188.992 151.212 188.992C150.787 188.997 150.369 188.879 150 188.648L150.189 188.13Z" fill="#E0DEDD"/>
<path d="M159.996 184.315C159.823 184.307 159.649 184.318 159.477 184.346C159.023 184.409 158.602 184.621 158.281 184.948C157.961 185.275 157.758 185.699 157.705 186.154L157.73 186.154C157.875 185.967 158.062 185.816 158.275 185.714C158.489 185.612 158.724 185.561 158.96 185.565C159.864 185.565 160.499 186.216 160.499 187.209C160.499 188.141 159.864 189 158.805 189C157.747 189 157.002 188.155 157.002 186.835C156.988 186.415 157.057 185.996 157.205 185.602C157.353 185.208 157.577 184.848 157.865 184.54C158.311 184.117 158.885 183.852 159.497 183.789C159.663 183.764 159.831 183.751 159.999 183.752L159.996 184.315ZM159.799 187.249C159.799 186.52 159.384 186.083 158.749 186.083C158.543 186.087 158.342 186.148 158.167 186.258C157.993 186.368 157.853 186.524 157.761 186.708C157.707 186.8 157.68 186.906 157.682 187.012C157.682 187.857 158.083 188.468 158.811 188.468C159.398 188.468 159.796 187.975 159.796 187.249L159.799 187.249Z" fill="#E0DEDD"/>
<path d="M163.977 187.604C163.977 186.963 164.366 186.51 165.005 186.246L165.005 186.221C164.772 186.132 164.569 185.979 164.424 185.779C164.278 185.579 164.195 185.342 164.186 185.096C164.186 184.29 164.876 183.744 165.785 183.744C166.787 183.744 167.292 184.36 167.292 184.992C167.287 185.252 167.202 185.505 167.049 185.717C166.895 185.929 166.681 186.091 166.432 186.181L166.432 186.204C167.077 186.454 167.475 186.901 167.475 187.516C167.475 188.399 166.704 188.992 165.716 188.992C164.63 188.978 163.977 188.346 163.977 187.604ZM166.765 187.573C166.765 186.957 166.326 186.659 165.618 186.462C165.014 186.637 164.687 187.025 164.687 187.511C164.683 187.643 164.707 187.775 164.758 187.898C164.809 188.021 164.886 188.132 164.984 188.223C165.082 188.314 165.199 188.384 165.327 188.428C165.454 188.472 165.59 188.489 165.724 188.478C166.358 188.478 166.765 188.096 166.765 187.573ZM164.836 185.043C164.836 185.552 165.226 185.824 165.825 185.979C166.04 185.93 166.234 185.814 166.376 185.648C166.518 185.481 166.601 185.274 166.613 185.057C166.619 184.944 166.6 184.831 166.557 184.726C166.515 184.621 166.45 184.526 166.366 184.448C166.283 184.369 166.184 184.309 166.075 184.272C165.966 184.234 165.851 184.22 165.736 184.231C165.622 184.22 165.507 184.233 165.398 184.268C165.289 184.304 165.189 184.362 165.105 184.437C165.02 184.513 164.952 184.605 164.906 184.708C164.86 184.811 164.836 184.922 164.836 185.034L164.836 185.043Z" fill="#E0DEDD"/>
<path d="M176.219 189L176.219 188.571L176.704 188.04C177.87 186.783 178.398 186.118 178.403 185.34C178.416 185.203 178.401 185.065 178.36 184.935C178.319 184.805 178.252 184.687 178.165 184.591C178.078 184.494 177.973 184.42 177.858 184.375C177.742 184.331 177.619 184.316 177.498 184.332C177.14 184.347 176.797 184.5 176.527 184.766L176.333 184.275C176.695 183.934 177.153 183.749 177.625 183.752C178.608 183.752 179.023 184.515 179.023 185.252C179.023 186.206 178.411 186.966 177.448 188.023L177.084 188.403L177.084 188.42L179.134 188.42L179.134 188.991L176.219 189Z" fill="#E0DEDD"/>
<path d="M183.407 188.13C183.72 188.333 184.076 188.443 184.44 188.451C185.251 188.451 185.504 187.887 185.496 187.464C185.496 186.751 184.9 186.447 184.29 186.447L183.939 186.447L183.939 185.928L184.29 185.928C184.75 185.928 185.323 185.669 185.323 185.066C185.323 184.66 185.086 184.3 184.505 184.3C184.17 184.31 183.846 184.428 183.573 184.638L183.407 184.136C183.769 183.878 184.193 183.741 184.626 183.744C185.545 183.744 185.961 184.339 185.961 184.959C185.956 185.233 185.87 185.499 185.715 185.715C185.56 185.931 185.344 186.086 185.101 186.157C185.388 186.205 185.649 186.363 185.839 186.603C186.028 186.843 186.133 187.148 186.134 187.464C186.134 188.279 185.553 188.992 184.432 188.992C184.007 188.998 183.588 188.879 183.219 188.648L183.407 188.13Z" fill="#E0DEDD"/>
<path d="M193.717 183.736L193.717 184.207L191.303 188.984L190.526 188.984L192.931 184.338L192.931 184.32L190.219 184.32L190.219 183.739L193.717 183.736Z" fill="#E0DEDD"/>
<path d="M197.219 187.604C197.219 186.963 197.609 186.51 198.246 186.246L198.246 186.221C198.011 186.133 197.808 185.98 197.662 185.78C197.515 185.58 197.432 185.342 197.423 185.096C197.423 184.29 198.117 183.744 199.027 183.744C200.031 183.744 200.534 184.36 200.534 184.992C200.529 185.252 200.444 185.505 200.291 185.717C200.137 185.929 199.922 186.091 199.673 186.181L199.673 186.204C200.318 186.454 200.717 186.901 200.717 187.516C200.717 188.399 199.942 188.992 198.955 188.992C197.887 188.978 197.219 188.346 197.219 187.604ZM200.008 187.573C200.008 186.957 199.572 186.659 198.86 186.462C198.255 186.637 197.928 187.025 197.928 187.511C197.923 187.643 197.947 187.775 197.998 187.897C198.05 188.02 198.127 188.13 198.224 188.222C198.322 188.313 198.439 188.383 198.566 188.427C198.694 188.471 198.829 188.489 198.964 188.478C199.61 188.478 200.008 188.096 200.008 187.573ZM198.08 185.043C198.08 185.552 198.47 185.824 199.07 185.979C199.286 185.93 199.479 185.813 199.622 185.647C199.764 185.481 199.848 185.274 199.859 185.057C199.865 184.944 199.846 184.831 199.803 184.726C199.761 184.621 199.696 184.526 199.613 184.448C199.529 184.369 199.43 184.309 199.321 184.272C199.212 184.234 199.096 184.22 198.981 184.231C198.867 184.22 198.751 184.233 198.643 184.268C198.534 184.304 198.434 184.362 198.349 184.437C198.264 184.513 198.196 184.605 198.15 184.708C198.104 184.811 198.08 184.922 198.08 185.034L198.08 185.043Z" fill="#E0DEDD"/>
<path d="M206.44 189L206.44 187.571L204.219 187.571L204.219 187.104L206.35 183.752L207.048 183.752L207.048 187.014L207.717 187.014L207.717 187.571L207.048 187.571L207.048 189L206.44 189ZM206.44 187.014L206.44 185.271C206.44 184.998 206.44 184.722 206.461 184.449L206.44 184.449C206.292 184.754 206.176 184.981 206.043 185.222L204.875 187.008L204.875 187.022L206.44 187.014Z" fill="#E0DEDD"/>
<path d="M214.61 184.324L212.827 184.324L212.648 185.649C212.775 185.629 212.902 185.619 213.03 185.618C213.383 185.613 213.732 185.712 214.039 185.904C214.25 186.037 214.424 186.23 214.543 186.464C214.661 186.697 214.719 186.962 214.712 187.229C214.712 188.237 213.982 188.991 212.965 188.991C212.557 189.002 212.153 188.893 211.797 188.674L211.955 188.143C212.262 188.328 212.607 188.427 212.957 188.429C213.098 188.44 213.239 188.419 213.372 188.368C213.505 188.317 213.627 188.236 213.731 188.132C213.835 188.027 213.919 187.9 213.976 187.758C214.034 187.617 214.066 187.464 214.068 187.309C214.068 186.643 213.658 186.166 212.721 186.166C212.504 186.169 212.287 186.187 212.072 186.221L212.373 183.744L214.618 183.744L214.61 184.324Z" fill="#E0DEDD"/>
<path d="M239.087 184.414L239.073 184.414L238.169 184.908L238.031 184.368L239.182 183.752L239.781 183.752L239.781 189L239.102 189L239.087 184.414Z" fill="#E0DEDD"/>
<path d="M246.087 184.43L246.07 184.43L245.167 184.924L245.031 184.383L246.182 183.768L246.781 183.768L246.781 189.016L246.102 189.016L246.087 184.43Z" fill="#E0DEDD"/>
<path d="M11 184.381L8.552 185.637C8.56 185.789 8.56 185.925 8.56 186.077L8.56 187.101L11 187.101L11 187.917L5.2 187.917L5.2 186.077C5.2 184.669 5.48 183.661 6.872 183.661C7.792 183.661 8.232 184.101 8.424 184.813L11 183.469L11 184.381ZM5.888 186.013L5.888 187.101L7.872 187.101L7.872 186.013C7.872 185.157 7.784 184.501 6.888 184.501C5.992 184.501 5.888 185.157 5.888 186.013ZM5.2 181.912L11 181.912L11 182.728L5.2 182.728L5.2 181.912ZM5.2 180.772L5.2 178.956C5.2 177.54 5.52 176.548 6.952 176.548C8.392 176.548 8.704 177.54 8.704 178.956L8.704 179.956L11 179.956L11 180.772L5.2 180.772ZM5.888 178.892L5.888 179.956L7.992 179.956L7.992 178.892C7.992 178.036 7.904 177.38 6.952 177.38C6.008 177.38 5.888 178.036 5.888 178.892ZM5.2 170.404L5.2 169.588L11 169.588L11 170.404L8.368 170.404L8.368 173.452L11 173.452L11 174.268L5.2 174.268L5.2 173.452L7.664 173.452L7.664 170.404L5.2 170.404ZM11 168.453L5.2 168.453L5.2 164.517L5.904 164.517L5.904 167.637L7.664 167.637L7.664 164.701L8.368 164.701L8.368 167.637L10.296 167.637L10.296 164.517L11 164.517L11 168.453ZM11 160.251L8.552 161.507C8.56 161.659 8.56 161.795 8.56 161.947L8.56 162.971L11 162.971L11 163.787L5.2 163.787L5.2 161.947C5.2 160.539 5.48 159.531 6.872 159.531C7.792 159.531 8.232 159.971 8.424 160.683L11 159.339L11 160.251ZM5.888 161.883L5.888 162.971L7.872 162.971L7.872 161.883C7.872 161.027 7.784 160.371 6.888 160.371C5.992 160.371 5.888 161.027 5.888 161.883ZM11 158.597L5.2 158.597L5.2 154.661L5.904 154.661L5.904 157.781L7.664 157.781L7.664 154.845L8.368 154.845L8.368 157.781L10.296 157.781L10.296 154.661L11 154.661L11 158.597Z" fill="#E0DEDD"/>
<line x1="5.99219" y1="31.5078" x2="279.992" y2="31.5078" stroke="#E0DEDD"/>
<path d="M25.4498 9.23219C28.1298 9.23219 30.0498 10.5722 30.0498 13.0322C30.0498 16.3922 26.5498 19.3522 22.4898 22.2922H30.4498V23.9922H20.0098V22.3522C25.1298 18.5722 28.1298 15.8522 28.1298 13.2722C28.1298 11.7522 27.1498 10.7522 25.4098 10.7522C23.8498 10.7522 22.3498 11.6122 22.2898 14.0122H20.4098C20.3498 11.1322 22.3498 9.23219 25.4498 9.23219ZM41.1066 16.7322C41.1066 12.6722 39.7066 10.7522 37.4066 10.7522C35.0866 10.7522 33.7066 12.6722 33.7066 16.7322C33.7066 20.8122 35.0866 22.7322 37.4066 22.7322C39.7266 22.7322 41.1066 20.8122 41.1066 16.7322ZM43.0466 16.7322C43.0466 21.3122 41.2666 24.2522 37.4066 24.2522C33.5466 24.2522 31.7666 21.3122 31.7666 16.7322C31.7666 12.1522 33.5466 9.23219 37.4066 9.23219C41.2666 9.23219 43.0466 12.1522 43.0466 16.7322ZM47.6293 17.7922C45.4493 17.7922 44.3693 16.0522 44.3693 13.5722C44.3693 11.0922 45.4493 9.35219 47.6293 9.35219C49.8093 9.35219 50.9293 11.0922 50.9293 13.5722C50.9293 16.0522 49.8093 17.7922 47.6293 17.7922ZM47.6293 16.6922C48.8093 16.6922 49.4093 15.5722 49.4093 13.5722C49.4093 11.5722 48.8093 10.4322 47.6293 10.4322C46.5093 10.4322 45.8893 11.5722 45.8893 13.5722C45.8893 15.5722 46.5093 16.6922 47.6293 16.6922ZM49.6293 23.9922H47.6093L57.6093 9.49219H59.6293L49.6293 23.9922ZM59.6293 24.1322C57.4493 24.1322 56.3693 22.3922 56.3693 19.9122C56.3693 17.4322 57.4493 15.6922 59.6293 15.6922C61.8093 15.6922 62.9293 17.4322 62.9293 19.9122C62.9293 22.3922 61.8093 24.1322 59.6293 24.1322ZM59.6293 23.0322C60.8093 23.0322 61.4093 21.9122 61.4093 19.9122C61.4093 17.9122 60.8093 16.7722 59.6293 16.7722C58.5093 16.7722 57.8893 17.9122 57.8893 19.9122C57.8893 21.9122 58.5093 23.0322 59.6293 23.0322Z" fill="#E0DEDD"/>
<path d="M20.72 53.9844V39.4844H30.14V41.2444H22.76V45.6444H29.72V47.4044H22.76V53.9844H20.72ZM32.4714 48.6444C32.4714 51.5244 34.0314 52.6444 35.6914 52.6444C37.3514 52.6444 38.9114 51.4044 38.9114 48.6444C38.9114 45.7644 37.3514 44.6444 35.6914 44.6444C34.0314 44.6444 32.4714 45.7044 32.4714 48.6444ZM35.6914 43.0444C38.1914 43.0444 40.8514 44.7444 40.8514 48.6444C40.8514 52.5444 38.1914 54.2444 35.6914 54.2444C33.1914 54.2444 30.5314 52.5444 30.5314 48.6444C30.5314 44.7444 33.1914 43.0444 35.6914 43.0444ZM47.9883 43.1844V45.1244C47.6083 45.0644 47.2683 45.0444 46.9683 45.0444C45.2883 45.0444 44.4483 45.9444 44.4483 48.3444V53.9844H42.6283V43.2244H44.4083V45.1044C44.9483 43.8844 46.0283 43.2244 47.4483 43.1644C47.6283 43.1644 47.7683 43.1644 47.9883 43.1844ZM20.72 73.9844V59.4844H30.56V61.2444H22.76V65.6444H30.1V67.4044H22.76V72.2244H30.56V73.9844H20.72ZM39.1833 69.4844V68.8044C35.8833 69.1244 33.7833 69.6244 33.7833 71.1044C33.7833 72.1244 34.5633 72.8044 35.8633 72.8044C37.5633 72.8044 39.1833 72.0244 39.1833 69.4844ZM35.4633 74.2444C33.4433 74.2444 31.7633 73.1244 31.7633 71.1444C31.7633 68.6044 34.6433 67.8444 39.0433 67.3644V67.1044C39.0433 65.1244 37.9633 64.4844 36.6033 64.4844C35.0833 64.4844 34.2233 65.2844 34.1433 66.6244H32.2633C32.4233 64.3044 34.5033 63.0044 36.5833 63.0044C39.6033 63.0044 40.8833 64.3844 40.8633 67.4444L40.8433 69.9244C40.8233 71.7444 40.9033 72.9644 41.1233 73.9844H39.2833C39.2233 73.5844 39.1633 73.1444 39.1433 72.5044C38.4833 73.6244 37.3833 74.2444 35.4633 74.2444ZM47.6352 63.0444C50.2552 63.0444 51.8752 64.9844 52.1352 66.8244H50.2952C50.0352 65.5444 48.9352 64.6444 47.5152 64.6444C45.9152 64.6444 44.4152 65.9044 44.4152 68.6044C44.4152 71.3244 45.9152 72.6444 47.5152 72.6444C49.0552 72.6444 50.1152 71.6044 50.3752 70.4844H52.2552C51.8752 72.5044 49.9752 74.2444 47.4552 74.2444C44.3552 74.2444 42.4352 71.9044 42.4352 68.6244C42.4352 65.4244 44.4352 63.0444 47.6352 63.0444ZM55.728 59.4844V64.8444C56.348 63.8244 57.388 63.0444 59.208 63.0444C61.808 63.0444 62.748 64.7244 62.748 67.1844V73.9844H60.928V67.7244C60.928 66.0644 60.648 64.6244 58.568 64.6244C56.808 64.6244 55.728 65.8044 55.728 68.1444V73.9844H53.908V59.4844H55.728ZM29.56 93.9844L26.42 87.8644C26.04 87.8844 25.7 87.8844 25.32 87.8844H22.76V93.9844H20.72V79.4844H25.32C28.84 79.4844 31.36 80.1844 31.36 83.6644C31.36 85.9644 30.26 87.0644 28.48 87.5444L31.84 93.9844H29.56ZM25.48 81.2044H22.76V86.1644H25.48C27.62 86.1644 29.26 85.9444 29.26 83.7044C29.26 81.4644 27.62 81.2044 25.48 81.2044ZM43.0166 89.2044H34.7366C34.7966 91.5244 36.4766 92.6444 38.0566 92.6444C39.6566 92.6444 40.5366 91.9244 40.9966 90.8644H42.8766C42.3966 92.7044 40.6766 94.2444 38.0566 94.2444C34.6566 94.2444 32.7766 91.8044 32.7766 88.6244C32.7766 85.2044 35.0566 83.0444 37.9966 83.0444C41.2966 83.0444 43.2366 85.7844 43.0166 89.2044ZM37.9966 84.6044C36.3966 84.6044 34.9166 85.4844 34.7566 87.6444H41.0966C41.0366 86.1244 39.9366 84.6044 37.9966 84.6044ZM45.2953 83.2244V82.4444C45.2953 80.2044 45.7353 79.4844 48.1953 79.4844H49.1353V81.0044H48.2353C47.2753 81.0044 47.1153 81.2244 47.1153 82.3444V83.2244H49.1353V84.6844H47.1153V93.9844H45.2953V84.6844H43.7953V83.2244H45.2953ZM59.8142 89.2044H51.5342C51.5942 91.5244 53.2742 92.6444 54.8542 92.6444C56.4542 92.6444 57.3342 91.9244 57.7942 90.8644H59.6742C59.1942 92.7044 57.4742 94.2444 54.8542 94.2444C51.4542 94.2444 49.5742 91.8044 49.5742 88.6244C49.5742 85.2044 51.8542 83.0444 54.7942 83.0444C58.0942 83.0444 60.0342 85.7844 59.8142 89.2044ZM54.7942 84.6044C53.1942 84.6044 51.7142 85.4844 51.5542 87.6444H57.8942C57.8342 86.1244 56.7342 84.6044 54.7942 84.6044ZM66.8953 83.1844V85.1244C66.5153 85.0644 66.1753 85.0444 65.8753 85.0444C64.1953 85.0444 63.3553 85.9444 63.3553 88.3444V93.9844H61.5353V83.2244H63.3153V85.1044C63.8553 83.8844 64.9353 83.2244 66.3553 83.1644C66.5353 83.1644 66.6753 83.1644 66.8953 83.1844ZM73.6047 83.1844V85.1244C73.2247 85.0644 72.8847 85.0444 72.5847 85.0444C70.9047 85.0444 70.0647 85.9444 70.0647 88.3444V93.9844H68.2447V83.2244H70.0247V85.1044C70.5647 83.8844 71.6447 83.2244 73.0647 83.1644C73.2447 83.1644 73.3847 83.1644 73.6047 83.1844ZM81.3434 89.4844V88.8044C78.0434 89.1244 75.9434 89.6244 75.9434 91.1044C75.9434 92.1244 76.7234 92.8044 78.0234 92.8044C79.7234 92.8044 81.3434 92.0244 81.3434 89.4844ZM77.6234 94.2444C75.6034 94.2444 73.9234 93.1244 73.9234 91.1444C73.9234 88.6044 76.8034 87.8444 81.2034 87.3644V87.1044C81.2034 85.1244 80.1234 84.4844 78.7634 84.4844C77.2434 84.4844 76.3834 85.2844 76.3034 86.6244H74.4234C74.5834 84.3044 76.6634 83.0044 78.7434 83.0044C81.7634 83.0044 83.0434 84.3844 83.0234 87.4444L83.0034 89.9244C82.9834 91.7444 83.0634 92.9644 83.2834 93.9844H81.4434C81.3834 93.5844 81.3234 93.1444 81.3034 92.5044C80.6434 93.6244 79.5434 94.2444 77.6234 94.2444ZM87.1553 79.4844V93.9844H85.3353V79.4844H87.1553Z" fill="#E0DEDD"/>
<path d="M224.663 12.1598H225.455C225.199 13.4398 224.199 14.1118 222.943 14.1118C221.279 14.1118 220.311 12.8558 220.311 11.0958C220.311 9.30381 221.375 8.10381 223.007 8.10381C224.207 8.10381 225.167 8.81581 225.423 10.0558H224.631C224.463 9.32781 223.887 8.79181 222.967 8.79181C221.943 8.79181 221.143 9.59181 221.143 11.0958C221.143 12.5678 221.911 13.4238 222.991 13.4238C223.927 13.4238 224.479 12.9038 224.663 12.1598ZM226.708 11.1038C226.708 12.5998 227.532 13.4238 228.596 13.4238C229.652 13.4238 230.484 12.5998 230.484 11.1038C230.484 9.60781 229.652 8.79181 228.596 8.79181C227.532 8.79181 226.708 9.60781 226.708 11.1038ZM231.316 11.1038C231.316 12.8558 230.26 14.1118 228.596 14.1118C226.932 14.1118 225.876 12.8558 225.876 11.1038C225.876 9.35181 226.932 8.10381 228.596 8.10381C230.26 8.10381 231.316 9.35181 231.316 11.1038ZM232.086 8.20781H232.902V11.7358C232.902 12.8798 233.31 13.4078 234.398 13.4078C235.51 13.4078 235.918 12.7918 235.918 11.6478V8.20781H236.734V11.5838C236.734 13.2798 236.086 14.1118 234.398 14.1118C232.79 14.1118 232.086 13.4558 232.086 11.6478V8.20781ZM237.785 8.20781H239.601C241.017 8.20781 242.009 8.52781 242.009 9.95981C242.009 11.3998 241.017 11.7118 239.601 11.7118H238.601V14.0078H237.785V8.20781ZM239.665 8.89581H238.601V10.9998H239.665C240.521 10.9998 241.177 10.9118 241.177 9.95981C241.177 9.01581 240.521 8.89581 239.665 8.89581ZM243.183 11.1038C243.183 12.5998 244.007 13.4238 245.071 13.4238C246.127 13.4238 246.959 12.5998 246.959 11.1038C246.959 9.60781 246.127 8.79181 245.071 8.79181C244.007 8.79181 243.183 9.60781 243.183 11.1038ZM247.791 11.1038C247.791 12.8558 246.735 14.1118 245.071 14.1118C243.407 14.1118 242.351 12.8558 242.351 11.1038C242.351 9.35181 243.407 8.10381 245.071 8.10381C246.735 8.10381 247.791 9.35181 247.791 11.1038ZM253.313 14.0078H252.121L249.465 9.05581V14.0078H248.649V8.20781H249.849L252.497 13.1438V8.20781H253.313V14.0078Z" fill="#E0DEDD"/>
<path d="M182.509 24V18.904H180.621V18.2H185.213V18.904H183.325V24H182.509ZM185.131 18.2H186.027L187.611 21.032L189.227 18.2H190.123L187.995 21.752V24H187.179V21.736L185.131 18.2ZM190.571 18.2H192.387C193.803 18.2 194.795 18.52 194.795 19.952C194.795 21.392 193.803 21.704 192.387 21.704H191.387V24H190.571V18.2ZM192.451 18.888H191.387V20.992H192.451C193.307 20.992 193.963 20.904 193.963 19.952C193.963 19.008 193.307 18.888 192.451 18.888ZM195.417 24V18.2H199.353V18.904H196.233V20.664H199.169V21.368H196.233V23.296H199.353V24H195.417ZM201.574 19.696H202.71L202.918 18.2H203.51L203.302 19.696H204.55L204.758 18.2H205.35L205.142 19.696H206.214L206.134 20.264H205.062L204.87 21.656H205.95L205.87 22.224H204.79L204.55 24H203.958L204.198 22.224H202.95L202.71 24H202.118L202.358 22.224H201.23L201.31 21.656H202.438L202.63 20.264H201.494L201.574 19.696ZM203.222 20.264L203.03 21.656H204.278L204.47 20.264H203.222ZM208.558 18.096C209.63 18.096 210.398 18.632 210.398 19.616C210.398 20.96 208.998 22.144 207.374 23.32H210.558V24H206.382V23.344C208.43 21.832 209.63 20.744 209.63 19.712C209.63 19.104 209.238 18.704 208.542 18.704C207.918 18.704 207.318 19.048 207.294 20.008H206.542C206.518 18.856 207.318 18.096 208.558 18.096ZM212.877 23.496C213.645 23.496 214.189 23.104 214.189 22.376C214.189 21.544 213.445 21.272 212.517 21.272H212.397V20.608H212.493C213.517 20.608 214.037 20.328 214.037 19.648C214.037 19.032 213.525 18.704 212.909 18.704C212.133 18.704 211.709 19.168 211.645 19.832H210.893C210.981 18.808 211.709 18.096 212.925 18.096C213.925 18.096 214.805 18.504 214.805 19.568C214.805 20.168 214.469 20.664 213.861 20.912C214.725 21.192 214.965 21.752 214.965 22.368C214.965 23.536 213.981 24.104 212.869 24.104C211.493 24.104 210.893 23.256 210.805 22.288H211.557C211.645 23 212.053 23.496 212.877 23.496ZM217.492 18.096C218.564 18.096 219.332 18.632 219.332 19.616C219.332 20.96 217.932 22.144 216.308 23.32H219.492V24H215.316V23.344C217.364 21.832 218.564 20.744 218.564 19.712C218.564 19.104 218.172 18.704 217.476 18.704C216.852 18.704 216.252 19.048 216.228 20.008H215.476C215.452 18.856 216.252 18.096 217.492 18.096ZM222.123 22.152H219.579V21.464H222.123V22.152ZM221.995 24L224.147 18.2H225.091L227.275 24H226.395L225.939 22.744H223.275L222.827 24H221.995ZM224.595 19.024L223.523 22.048H225.683L224.595 19.024ZM229.682 22.152H227.138V21.464H229.682V22.152ZM234.02 24L232.764 21.552C232.612 21.56 232.476 21.56 232.324 21.56H231.3V24H230.484V18.2H232.324C233.732 18.2 234.74 18.48 234.74 19.872C234.74 20.792 234.3 21.232 233.588 21.424L234.932 24H234.02ZM232.388 18.888H231.3V20.872H232.388C233.244 20.872 233.9 20.784 233.9 19.888C233.9 18.992 233.244 18.888 232.388 18.888ZM235.674 24V18.2H239.61V18.904H236.49V20.664H239.426V21.368H236.49V23.296H239.61V24H235.674ZM240.34 24V18.2H244.108V18.904H241.156V20.664H243.94V21.368H241.156V24H240.34ZM244.576 24V18.2H248.512V18.904H245.392V20.664H248.328V21.368H245.392V23.296H248.512V24H244.576ZM252.779 24L251.523 21.552C251.371 21.56 251.235 21.56 251.083 21.56H250.059V24H249.243V18.2H251.083C252.491 18.2 253.499 18.48 253.499 19.872C253.499 20.792 253.059 21.232 252.347 21.424L253.691 24H252.779ZM251.147 18.888H250.059V20.872H251.147C252.003 20.872 252.659 20.784 252.659 19.888C252.659 18.992 252.003 18.888 251.147 18.888Z" fill="#E0DEDD"/>
</svg>
