<svg width="257" height="257" viewBox="0 0 257 257" fill="none" xmlns="http://www.w3.org/2000/svg">
<path d="M1 1V0H0V1H1ZM1 2H129V0H1V2ZM2 129V1H0V129H2Z" fill="black"/>
<path d="M129 1V0H128V1H129ZM129 2H257V0H129V2ZM130 129V1H128V129H130Z" fill="black"/>
<path d="M1 129V128H0V129H1ZM1 130H129V128H1V130ZM2 257V129H0V257H2Z" fill="black"/>
<path d="M129 129V128H128V129H129ZM129 130H257V128H129V130ZM130 257V129H128V257H130Z" fill="black"/>
<path d="M128 117H130L134 129L130 141H128L124 129L128 117Z" fill="black"/>
<path d="M117 128L129 124L141 128V130L129 134L117 130V128Z" fill="black"/>
</svg>
